<svg width="117" height="50" viewBox="0 0 117 113" fill="none" xmlns="http://www.w3.org/2000/svg">
<path d="M62.0882 101.148H54.3416V75.6381L33.3677 54.668C31.916 53.2135 31.1006 51.2424 31.1006 49.1873C31.1006 47.1323 31.916 45.1611 33.3677 43.7066L51.1307 25.9476C52.5844 24.4972 54.554 23.6827 56.6075 23.6827C58.661 23.6827 60.6307 24.4972 62.0844 25.9476L79.185 43.0482H100.821V50.7947H75.974L56.6075 31.4283L38.8485 49.1873L62.0882 72.4271V101.148ZM79.5181 27.555C76.8368 27.555 74.2158 26.7599 71.9865 25.2703C69.7571 23.7807 68.0195 21.6634 66.9935 19.1863C65.9674 16.7092 65.6989 13.9834 66.222 11.3537C66.7451 8.72398 68.0362 6.30843 69.9321 4.41252C71.8281 2.5166 74.2436 1.22547 76.8733 0.702386C79.503 0.179304 82.2288 0.447768 84.7059 1.47383C87.1831 2.49989 89.3003 4.23747 90.7899 6.46683C92.2795 8.69619 93.0746 11.3172 93.0746 13.9984C93.0705 17.5926 91.6409 21.0384 89.0995 23.5798C86.558 26.1213 83.1122 27.5509 79.5181 27.555ZM79.5181 8.18849C78.369 8.18849 77.2457 8.52924 76.2902 9.16764C75.3348 9.80605 74.5901 10.7134 74.1504 11.7751C73.7106 12.8367 73.5956 14.0049 73.8198 15.1319C74.0439 16.2589 74.5973 17.2942 75.4098 18.1067C76.2224 18.9192 77.2576 19.4726 78.3846 19.6967C79.5116 19.9209 80.6798 19.8059 81.7414 19.3661C82.8031 18.9264 83.7104 18.1817 84.3489 17.2263C84.9873 16.2708 85.328 15.1475 85.328 13.9984C85.326 12.4582 84.7132 10.9816 83.6241 9.89245C82.5349 8.80332 81.0583 8.19054 79.5181 8.18849Z" fill="#FAFF00"/>
<path d="M93.0753 112.767C88.4789 112.767 83.9857 111.404 80.164 108.851C76.3422 106.297 73.3635 102.668 71.6046 98.4211C69.8456 94.1746 69.3854 89.5018 70.2821 84.9938C71.1788 80.4857 73.3922 76.3448 76.6423 73.0946C79.8924 69.8445 84.0334 67.6311 88.5415 66.7344C93.0495 65.8377 97.7223 66.2979 101.969 68.0569C106.215 69.8158 109.845 72.7945 112.398 76.6163C114.952 80.4381 116.315 84.9312 116.315 89.5276C116.308 95.689 113.857 101.596 109.5 105.953C105.144 110.309 99.2367 112.76 93.0753 112.767ZM93.0753 74.0344C90.011 74.0344 87.0156 74.9431 84.4678 76.6455C81.9199 78.3479 79.9341 80.7676 78.7615 83.5986C77.5888 86.4297 77.282 89.5448 77.8798 92.5502C78.4776 95.5556 79.9532 98.3162 82.12 100.483C84.2867 102.65 87.0474 104.125 90.0527 104.723C93.0581 105.321 96.1733 105.014 99.0043 103.841C101.835 102.669 104.255 100.683 105.957 98.1352C107.66 95.5873 108.568 92.5919 108.568 89.5276C108.563 85.4202 106.929 81.4824 104.025 78.578C101.121 75.6735 97.1828 74.0396 93.0753 74.0344ZM23.356 112.767C18.7596 112.767 14.2664 111.404 10.4447 108.851C6.62291 106.297 3.64421 102.668 1.88524 98.4211C0.12628 94.1746 -0.333945 89.5018 0.562767 84.9938C1.45948 80.4857 3.67285 76.3448 6.92299 73.0946C10.1731 69.8445 14.3141 67.6311 18.8221 66.7344C23.3302 65.8377 28.003 66.2979 32.2495 68.0569C36.496 69.8158 40.1255 72.7945 42.6792 76.6163C45.2328 80.4381 46.5958 84.9312 46.5958 89.5276C46.5886 95.689 44.1378 101.596 39.7811 105.953C35.4243 110.309 29.5174 112.76 23.356 112.767ZM23.356 74.0344C20.2917 74.0344 17.2963 74.9431 14.7484 76.6455C12.2006 78.3479 10.2148 80.7676 9.04216 83.5986C7.86952 86.4297 7.5627 89.5448 8.16051 92.5502C8.75832 95.5556 10.2339 98.3162 12.4007 100.483C14.5674 102.65 17.328 104.125 20.3334 104.723C23.3388 105.321 26.454 105.014 29.285 103.841C32.116 102.669 34.5357 100.683 36.2381 98.1352C37.9405 95.5873 38.8492 92.5919 38.8492 89.5276C38.8441 85.4202 37.2101 81.4824 34.3057 78.578C31.4012 75.6735 27.4635 74.0396 23.356 74.0344Z" fill="#FAFF00"/>
</svg>
