<svg width="119" height="50" viewBox="0 0 119 110" fill="none" xmlns="http://www.w3.org/2000/svg">
<path d="M77.8882 32.5494C77.8882 42.9297 69.8208 51.3648 59.4668 51.3648C49.0998 51.3648 40.6515 42.9164 40.6515 32.5494C40.6515 22.5697 48.7124 14.128 59.0728 14.128C69.4531 14.128 77.8882 22.1955 77.8882 32.5494ZM70.9859 32.9434C70.9859 26.4692 65.8051 21.1911 59.3683 21.034V21.0303H59.3683H59.3682H59.3682H59.3682H59.3681H59.368H59.3679H59.3679H59.3678H59.3677H59.3676H59.3674H59.3673H59.3672H59.367H59.3669H59.3667H59.3665H59.3663H59.3661H59.3659H59.3657H59.3655H59.3653H59.365H59.3648H59.3645H59.3643H59.364H59.3637H59.3634H59.3631H59.3628H59.3625H59.3621H59.3618H59.3615H59.3611H59.3607H59.3604H59.36H59.3596H59.3592H59.3588H59.3584H59.3579H59.3575H59.357H59.3566H59.3561H59.3556H59.3552H59.3547H59.3542H59.3537H59.3531H59.3526H59.3521H59.3515H59.351H59.3504H59.3498H59.3493H59.3487H59.3481H59.3475H59.3468H59.3462H59.3456H59.3449H59.3443H59.3436H59.343H59.3423H59.3416H59.3409H59.3402H59.3395H59.3387H59.338H59.3373H59.3365H59.3357H59.335H59.3342H59.3334H59.3326H59.3318H59.331H59.3302H59.3293H59.3285H59.3276H59.3268H59.3259H59.325H59.3241H59.3232H59.3223H59.3214H59.3205H59.3196H59.3186H59.3177H59.3167H59.3157H59.3147H59.3138H59.3128H59.3118H59.3107H59.3097H59.3087H59.3076H59.3066H59.3055H59.3045H59.3034H59.3023H59.3012H59.3001H59.299H59.2979H59.2967H59.2956H59.2944H59.2933H59.2921H59.2909H59.2898H59.2886H59.2874H59.2861H59.2849H59.2837H59.2825H59.2812H59.2799H59.2787H59.2774H59.2761H59.2748H59.2735H59.2722H59.2709H59.2696H59.2682H59.2669H59.2655H59.2642H59.2628H59.2614H59.26H59.2586H59.2572H59.2558H59.2543H59.2529H59.2515H59.25H59.2485H59.2471H59.2456H59.2441H59.2426H59.2411H59.2395H59.238H59.2365H59.2349H59.2334H59.2318H59.2302H59.2287H59.2271H59.2255H59.2239H59.2222H59.2206H59.219H59.2173H59.2157H59.214H59.2123H59.2107H59.209H59.2073H59.2056H59.2038H59.2021H59.2004H59.1986H59.1969H59.1951H59.1933H59.1916H59.1898H59.188H59.1862H59.1844H59.1825H59.1807H59.1788H59.177H59.1751H59.1733H59.1714H59.1695H59.1676H59.1657H59.1638H59.1618H59.1599H59.158H59.156H59.1541H59.1521H59.1501H59.1481H59.1461H59.1441H59.1421H59.1401H59.138H59.136H59.1339H59.1319H59.1298H59.1277H59.1257H59.1236H59.1215H59.1193H59.1172H59.1151H59.1129H59.1108H59.1086H59.1065H59.1043H59.1021H59.0999H59.0977H59.0955H59.0933H59.091H59.0888H59.0865H59.0843H59.082H59.0797H59.0774H59.0752H59.0728C52.8828 21.0303 47.5538 26.3816 47.5538 32.9434C47.5538 39.111 52.4886 44.4624 59.0728 44.4624C65.6231 44.4624 70.9859 39.5385 70.9859 32.9434Z" fill="#FAFF00" stroke="#131313" stroke-width="0.976744"/>
<path d="M90.1953 40.1291H90.2046L90.214 40.1287C100.327 39.7398 110.048 43.2385 117.436 49.8446L118.465 50.8737V81.6993H111.563V53.8231V53.5756L111.364 53.4292C105.37 49.0343 97.7802 46.6347 90.1825 47.0314H90.1798C88.1802 47.0314 86.433 47.0314 84.4792 47.2769C85.746 45.1696 86.7261 42.7857 87.4227 40.1291H90.1953Z" fill="#FAFF00" stroke="#131313" stroke-width="0.976744"/>
<path d="M93.9288 8.85558L93.9289 8.8554L93.9163 8.85056C88.8464 6.90058 83.3806 9.00601 81.0493 13.46C79.6309 11.5576 77.9605 10.196 76.2831 9.14111C79.3817 4.03239 84.6165 1.12778 90.5894 1.12778C99.7674 1.12778 107.435 8.78103 107.435 18.3673C107.435 27.5454 99.7817 35.2129 90.1954 35.2129C89.8721 35.2129 89.5374 35.1318 89.132 35.0305L89.1072 35.0243C88.867 34.9642 88.5998 34.8974 88.3201 34.8568V32.9436V32.9279C88.3201 31.5716 88.3201 29.8855 88.0592 28.1498C88.2967 28.2017 88.537 28.2358 88.768 28.2589C89.2847 28.3106 89.7972 28.3106 90.1875 28.3106H90.1954C93.9486 28.3106 97.6606 25.8194 99.3087 22.1112L99.3137 22.0998L99.3182 22.0882C101.379 16.7308 98.911 10.9315 93.9288 8.85558Z" fill="#FAFF00" stroke="#131313" stroke-width="0.976744"/>
<path d="M29.5074 40.5228L29.5168 40.5232H29.5262H32.2987C32.9894 43.1569 33.9586 45.5227 35.2096 47.6166C33.4778 47.3021 31.5124 47.0327 29.539 47.0316C21.9343 46.6344 14.7432 49.0391 8.36997 53.4208L8.15827 53.5663V53.8232V81.6995H1.25595V50.8739L2.27995 49.8499C9.67204 43.6317 19.3959 40.1339 29.5074 40.5228Z" fill="#FAFF00" stroke="#131313" stroke-width="0.976744"/>
<path d="M14.972 26.7783L14.9713 26.7772C9.99859 18.7443 12.6678 8.40456 20.7224 3.41836C28.633 -1.47866 38.7807 1.03531 43.8498 8.80524C42.1468 10.1766 40.1805 11.8371 38.6952 13.5383C36.9082 10.2065 33.4004 8.03009 29.5263 8.03009C24.1352 8.03009 19.5831 12.5822 19.5831 17.9733C19.5831 23.3645 24.1352 27.9166 29.5263 27.9166H29.5343C29.9245 27.9166 30.437 27.9166 30.9538 27.8649C31.1769 27.8426 31.4088 27.81 31.6384 27.761C31.4016 29.2194 31.4016 30.8912 31.4017 32.5068V32.5496V34.5944C30.8181 34.8136 30.2193 34.8189 29.5263 34.8189C23.392 34.8189 18.0344 31.7547 14.972 26.7783Z" fill="#FAFF00" stroke="#131313" stroke-width="0.976744"/>
<path d="M91.3649 73.3974L91.5099 73.6149H91.6768V103.067C91.6768 106.343 88.7438 109.276 85.468 109.276H35.0419C31.3907 109.276 28.8331 106.362 28.8331 103.067V73.2744L29.5186 72.2462C37.3056 63.6959 48.5831 58.6498 60.2387 59.0383L60.255 59.0389L60.2712 59.0383C71.9221 58.65 82.8077 63.6921 90.5974 72.2462L91.3649 73.3974ZM83.8922 102.374H84.3805V101.885V75.8842V75.6819L84.2375 75.5389C77.8463 69.1477 69.0531 65.5439 60.2439 65.9409C51.0754 65.9435 42.2827 69.1347 35.8785 75.5389L35.7354 75.6819V75.8842V101.885V102.374H36.2238H83.8922Z" fill="#FAFF00" stroke="#131313" stroke-width="0.976744"/>
</svg>
