<svg width="144" height="35" viewBox="0 0 144 70" fill="none" xmlns="http://www.w3.org/2000/svg">
<path d="M43.3099 3.86035H25.8066C24.8119 3.86035 23.8579 4.25551 23.1545 4.95891C22.4511 5.6623 22.0559 6.6163 22.0559 7.61105V62.6213C22.0559 63.1138 22.1529 63.6016 22.3414 64.0566C22.5299 64.5117 22.8062 64.9251 23.1545 65.2734C23.5027 65.6217 23.9162 65.898 24.3713 66.0865C24.8263 66.275 25.3141 66.372 25.8066 66.372H43.3099C43.8024 66.372 44.2901 66.275 44.7452 66.0865C45.2002 65.898 45.6137 65.6217 45.962 65.2734C46.3103 64.9251 46.5866 64.5117 46.7751 64.0566C46.9635 63.6016 47.0606 63.1138 47.0606 62.6213V7.61105C47.0606 6.6163 46.6654 5.6623 45.962 4.95891C45.2586 4.25551 44.3046 3.86035 43.3099 3.86035ZM118.324 3.86035H100.821C99.8258 3.86035 98.8718 4.25551 98.1684 4.95891C97.465 5.6623 97.0699 6.6163 97.0699 7.61105V62.6213C97.0699 63.1138 97.1669 63.6016 97.3554 64.0566C97.5439 64.5117 97.8201 64.9251 98.1684 65.2734C98.5167 65.6217 98.9302 65.898 99.3852 66.0865C99.8403 66.275 100.328 66.372 100.821 66.372H118.324C118.816 66.372 119.304 66.275 119.759 66.0865C120.214 65.898 120.628 65.6217 120.976 65.2734C121.324 64.9251 121.601 64.5117 121.789 64.0566C121.978 63.6016 122.075 63.1138 122.075 62.6213V7.61105C122.075 6.6163 121.679 5.6623 120.976 4.95891C120.273 4.25551 119.319 3.86035 118.324 3.86035Z" stroke="#FAFF00" stroke-width="5.86047" stroke-linecap="round" stroke-linejoin="round"/>
<path d="M47.0604 35.1165H97.0697M3.30225 50.1193V20.1137C3.30225 19.119 3.69741 18.165 4.4008 17.4616C5.10419 16.7582 6.0582 16.363 7.05294 16.363H18.305C19.2998 16.363 20.2538 16.7582 20.9572 17.4616C21.6606 18.165 22.0557 19.119 22.0557 20.1137V50.1193C22.0557 51.1141 21.6606 52.0681 20.9572 52.7715C20.2538 53.4749 19.2998 53.87 18.305 53.87H7.05294C6.0582 53.87 5.10419 53.4749 4.4008 52.7715C3.69741 52.0681 3.30225 51.1141 3.30225 50.1193ZM140.828 50.1193V20.1137C140.828 19.119 140.433 18.165 139.729 17.4616C139.026 16.7582 138.072 16.363 137.077 16.363H125.825C124.83 16.363 123.876 16.7582 123.173 17.4616C122.47 18.165 122.074 19.119 122.074 20.1137V50.1193C122.074 51.1141 122.47 52.0681 123.173 52.7715C123.876 53.4749 124.83 53.87 125.825 53.87H137.077C138.072 53.87 139.026 53.4749 139.729 52.7715C140.433 52.0681 140.828 51.1141 140.828 50.1193Z" stroke="#FAFF00" stroke-width="5.86047" stroke-linecap="round" stroke-linejoin="round"/>
</svg>
