<svg width="341" height="80" viewBox="0 0 341 80" fill="none" xmlns="http://www.w3.org/2000/svg">
<path d="M36.0619 55.0097H23.405L21.376 61H12.7288L24.9992 27.0872H34.5643L46.8348 61H38.0909L36.0619 55.0097ZM33.9363 48.6329L29.7335 36.2176L25.5789 48.6329H33.9363ZM49.893 47.5218C49.893 44.7199 50.4566 42.2723 51.5838 40.1789C52.7432 38.0855 54.3374 36.4752 56.3663 35.348C58.4275 34.2208 60.7785 33.6572 63.4194 33.6572C66.801 33.6572 69.6191 34.5429 71.8735 36.3142C74.1601 38.0855 75.6577 40.5815 76.3662 43.8021H67.574C66.8332 41.7409 65.4001 40.7103 63.2745 40.7103C61.7608 40.7103 60.5531 41.3061 59.6513 42.4977C58.7496 43.6571 58.2987 45.3318 58.2987 47.5218C58.2987 49.7118 58.7496 51.4026 59.6513 52.5943C60.5531 53.7537 61.7608 54.3334 63.2745 54.3334C65.4001 54.3334 66.8332 53.3028 67.574 51.2416H76.3662C75.6577 54.3978 74.1601 56.8776 71.8735 58.6812C69.5869 60.4847 66.7688 61.3865 63.4194 61.3865C60.7785 61.3865 58.4275 60.8229 56.3663 59.6957C54.3374 58.5685 52.7432 56.9582 51.5838 54.8648C50.4566 52.7714 49.893 50.3237 49.893 47.5218ZM80.1086 47.4735C80.1086 44.7038 80.6239 42.2723 81.6545 40.1789C82.7173 38.0855 84.1505 36.4752 85.954 35.348C87.7575 34.2208 89.7704 33.6572 91.9926 33.6572C93.8927 33.6572 95.5513 34.0437 96.9684 34.8166C98.4177 35.5896 99.5288 36.604 100.302 37.8601V34.0437H108.563V61H100.302V57.1836C99.4966 58.4396 98.3693 59.4541 96.9201 60.2271C95.503 61 93.8444 61.3865 91.9443 61.3865C89.7543 61.3865 87.7575 60.8229 85.954 59.6957C84.1505 58.5363 82.7173 56.9099 81.6545 54.8165C80.6239 52.6909 80.1086 50.2432 80.1086 47.4735ZM100.302 47.5218C100.302 45.4607 99.722 43.8343 98.5626 42.6426C97.4354 41.451 96.0505 40.8552 94.408 40.8552C92.7655 40.8552 91.3646 41.451 90.2052 42.6426C89.078 43.8021 88.5143 45.4124 88.5143 47.4735C88.5143 49.5347 89.078 51.1772 90.2052 52.401C91.3646 53.5926 92.7655 54.1885 94.408 54.1885C96.0505 54.1885 97.4354 53.5926 98.5626 52.401C99.722 51.2094 100.302 49.583 100.302 47.5218ZM113.863 47.4735C113.863 44.7038 114.378 42.2723 115.408 40.1789C116.471 38.0855 117.904 36.4752 119.708 35.348C121.511 34.2208 123.524 33.6572 125.746 33.6572C127.518 33.6572 129.128 34.0276 130.577 34.7683C132.059 35.509 133.218 36.5074 134.056 37.7635V25.2515H142.316V61H134.056V57.1353C133.283 58.4235 132.172 59.4541 130.722 60.2271C129.305 61 127.647 61.3865 125.746 61.3865C123.524 61.3865 121.511 60.8229 119.708 59.6957C117.904 58.5363 116.471 56.9099 115.408 54.8165C114.378 52.6909 113.863 50.2432 113.863 47.4735ZM134.056 47.5218C134.056 45.4607 133.476 43.8343 132.316 42.6426C131.189 41.451 129.804 40.8552 128.162 40.8552C126.519 40.8552 125.118 41.451 123.959 42.6426C122.832 43.8021 122.268 45.4124 122.268 47.4735C122.268 49.5347 122.832 51.1772 123.959 52.401C125.118 53.5926 126.519 54.1885 128.162 54.1885C129.804 54.1885 131.189 53.5926 132.316 52.401C133.476 51.2094 134.056 49.583 134.056 47.5218ZM174.669 47.0871C174.669 47.86 174.621 48.6651 174.524 49.5025H155.829C155.958 51.1772 156.489 52.4654 157.423 53.3672C158.389 54.2368 159.565 54.6715 160.95 54.6715C163.011 54.6715 164.444 53.802 165.249 52.0629H174.041C173.59 53.8342 172.769 55.4284 171.578 56.8454C170.418 58.2625 168.953 59.3736 167.182 60.1787C165.41 60.9839 163.43 61.3865 161.24 61.3865C158.599 61.3865 156.248 60.8229 154.186 59.6957C152.125 58.5685 150.515 56.9582 149.356 54.8648C148.196 52.7714 147.616 50.3237 147.616 47.5218C147.616 44.7199 148.18 42.2723 149.307 40.1789C150.467 38.0855 152.077 36.4752 154.138 35.348C156.199 34.2208 158.566 33.6572 161.24 33.6572C163.848 33.6572 166.167 34.2047 168.196 35.2997C170.225 36.3947 171.803 37.9567 172.93 39.9857C174.09 42.0146 174.669 44.3818 174.669 47.0871ZM166.215 44.9132C166.215 43.4961 165.732 42.3689 164.766 41.5315C163.8 40.6942 162.592 40.2755 161.143 40.2755C159.758 40.2755 158.583 40.6781 157.616 41.4832C156.682 42.2884 156.103 43.4317 155.877 44.9132H166.215ZM214.389 33.7538C217.739 33.7538 220.396 34.7683 222.36 36.7973C224.357 38.8262 225.356 41.6443 225.356 45.2513V61H217.143V46.3624C217.143 44.6233 216.676 43.2868 215.742 42.3528C214.84 41.3866 213.584 40.9035 211.974 40.9035C210.364 40.9035 209.092 41.3866 208.158 42.3528C207.256 43.2868 206.805 44.6233 206.805 46.3624V61H198.592V46.3624C198.592 44.6233 198.125 43.2868 197.191 42.3528C196.29 41.3866 195.034 40.9035 193.423 40.9035C191.813 40.9035 190.541 41.3866 189.607 42.3528C188.705 43.2868 188.254 44.6233 188.254 46.3624V61H179.994V34.0437H188.254V37.4253C189.092 36.2981 190.187 35.4124 191.539 34.7683C192.892 34.092 194.422 33.7538 196.129 33.7538C198.158 33.7538 199.961 34.1886 201.539 35.0582C203.15 35.9277 204.406 37.1676 205.307 38.7779C206.241 37.2965 207.513 36.0887 209.124 35.1548C210.734 34.2208 212.489 33.7538 214.389 33.7538ZM236.254 31.2418C234.804 31.2418 233.613 30.8231 232.679 29.9857C231.777 29.1162 231.326 28.0534 231.326 26.7974C231.326 25.5091 231.777 24.4463 232.679 23.609C233.613 22.7394 234.804 22.3046 236.254 22.3046C237.671 22.3046 238.83 22.7394 239.732 23.609C240.666 24.4463 241.133 25.5091 241.133 26.7974C241.133 28.0534 240.666 29.1162 239.732 29.9857C238.83 30.8231 237.671 31.2418 236.254 31.2418ZM240.36 34.0437V61H232.099V34.0437H240.36ZM245.67 47.5218C245.67 44.7199 246.234 42.2723 247.361 40.1789C248.52 38.0855 250.115 36.4752 252.144 35.348C254.205 34.2208 256.556 33.6572 259.197 33.6572C262.578 33.6572 265.396 34.5429 267.651 36.3142C269.937 38.0855 271.435 40.5815 272.143 43.8021H263.351C262.61 41.7409 261.177 40.7103 259.052 40.7103C257.538 40.7103 256.33 41.3061 255.429 42.4977C254.527 43.6571 254.076 45.3318 254.076 47.5218C254.076 49.7118 254.527 51.4026 255.429 52.5943C256.33 53.7537 257.538 54.3334 259.052 54.3334C261.177 54.3334 262.61 53.3028 263.351 51.2416H272.143C271.435 54.3978 269.937 56.8776 267.651 58.6812C265.364 60.4847 262.546 61.3865 259.197 61.3865C256.556 61.3865 254.205 60.8229 252.144 59.6957C250.115 58.5685 248.52 56.9582 247.361 54.8648C246.234 52.7714 245.67 50.3237 245.67 47.5218Z" fill="white"/>
<path d="M295.494 42.748V46.31H288.058V50.158H293.622V53.616H288.058V61H283.612V42.748H295.494ZM300.587 44.984C299.807 44.984 299.165 44.7587 298.663 44.308C298.177 43.84 297.935 43.268 297.935 42.592C297.935 41.8987 298.177 41.3267 298.663 40.876C299.165 40.408 299.807 40.174 300.587 40.174C301.349 40.174 301.973 40.408 302.459 40.876C302.961 41.3267 303.213 41.8987 303.213 42.592C303.213 43.268 302.961 43.84 302.459 44.308C301.973 44.7587 301.349 44.984 300.587 44.984ZM302.797 46.492V61H298.351V46.492H302.797ZM310.985 48.91C311.505 48.1127 312.155 47.4887 312.935 47.038C313.715 46.57 314.581 46.336 315.535 46.336V51.042H314.313C313.203 51.042 312.371 51.2847 311.817 51.77C311.262 52.238 310.985 53.07 310.985 54.266V61H306.539V46.492H310.985V48.91ZM331.856 53.512C331.856 53.928 331.83 54.3613 331.778 54.812H321.716C321.785 55.7133 322.071 56.4067 322.574 56.892C323.094 57.36 323.726 57.594 324.472 57.594C325.581 57.594 326.352 57.126 326.786 56.19H331.518C331.275 57.1433 330.833 58.0013 330.192 58.764C329.568 59.5267 328.779 60.1247 327.826 60.558C326.872 60.9913 325.806 61.208 324.628 61.208C323.206 61.208 321.941 60.9047 320.832 60.298C319.722 59.6913 318.856 58.8247 318.232 57.698C317.608 56.5713 317.296 55.254 317.296 53.746C317.296 52.238 317.599 50.9207 318.206 49.794C318.83 48.6673 319.696 47.8007 320.806 47.194C321.915 46.5873 323.189 46.284 324.628 46.284C326.032 46.284 327.28 46.5787 328.372 47.168C329.464 47.7573 330.313 48.598 330.92 49.69C331.544 50.782 331.856 52.056 331.856 53.512ZM327.306 52.342C327.306 51.5793 327.046 50.9727 326.526 50.522C326.006 50.0713 325.356 49.846 324.576 49.846C323.83 49.846 323.198 50.0627 322.678 50.496C322.175 50.9293 321.863 51.5447 321.742 52.342H327.306ZM336.801 61.208C336.021 61.208 335.38 60.9827 334.877 60.532C334.392 60.064 334.149 59.492 334.149 58.816C334.149 58.1227 334.392 57.542 334.877 57.074C335.38 56.606 336.021 56.372 336.801 56.372C337.564 56.372 338.188 56.606 338.673 57.074C339.176 57.542 339.427 58.1227 339.427 58.816C339.427 59.492 339.176 60.064 338.673 60.532C338.188 60.9827 337.564 61.208 336.801 61.208Z" fill="#FAFF00"/>
<rect width="6.44118" height="24.6912" rx="1.07353" fill="#FAFF00"/>
<rect y="6.44116" width="6.44118" height="24.6912" rx="1.07353" transform="rotate(-90 0 6.44116)" fill="#FAFF00"/>
</svg>
