<svg width="97" height="60" viewBox="0 0 97 120" fill="none" xmlns="http://www.w3.org/2000/svg">
<path d="M10.1851 110.151C15.0434 98.811 18.0615 94.2164 33.3455 84.1042C37.4273 72.8727 45.1719 66.6928 51.7883 61.5064C54.9061 49.1174 55.3339 35.9138 52.9135 30.5574C52.2982 34.0326 47.4809 38.3723 41.6908 41.3904C44.1844 47.3241 48.5241 52.7069 53.1714 55.0071" stroke="#FAFF00" stroke-width="4.88372" stroke-linecap="round" stroke-linejoin="round"/>
<path d="M80.9796 110.854C78.6794 97.4806 76.1447 88.7514 85.4365 81.7101C73.3288 83.5415 65.1623 71.4338 65.1623 71.4338C54.0421 77.769 46.4382 85.37 38.5559 89.1734C26.4453 104.66 22.2931 103.675 10.1855 110.151M10.1855 110.151C10.1855 110.151 11.2403 114.444 10.9122 116.767H2.60498C5.25683 114.725 8.35407 114.022 10.1855 110.151ZM53.1718 55.007C46.696 53.9287 38.7405 49.047 34.8931 44.1213M80.6455 28.3801C82.1956 41.6628 72.2505 47.028 73.1881 58.2918" stroke="#FAFF00" stroke-width="4.88372" stroke-linecap="round" stroke-linejoin="round"/>
<path d="M70.2755 18.2123C69.0741 19.3961 67.817 20.1931 65.4142 20.1931C63.0115 20.1931 62.4987 14.8015 62.5543 12.0471C62.61 9.29269 62.9411 2.55318 70.3634 2.48871C75.3008 2.44476 76.5667 5.75298 76.0744 11.8068C75.5821 17.8606 75.3916 20.7411 77.1293 22.8596C81.4953 21.9688 84.0299 24.0317 85.9053 26.7568C87.7806 29.4819 89.7087 36.28 94.1685 42.1492C94.5875 54.1163 91.209 60.217 83.0424 65.005C87.7367 60.592 89.0025 51.0659 88.393 45.1967C88.393 45.1967 80.6953 39.3333 80.5957 35.3072M73.1881 58.2918C81.9172 63.408 86.8107 68.8992 94.2007 76.5002C96.5244 88.1859 84.4988 87.8109 80.9796 110.854M80.9796 110.854C83.8893 112.826 86.2335 115.97 92.3342 116.767H76.5696C76.1916 113.717 80.9796 110.854 80.9796 110.854ZM60.3772 22.9123C60.3772 22.9123 55.3226 24.4068 52.9549 25.3942C45.981 28.301 39.5873 33.5139 34.8931 44.1184" stroke="#FAFF00" stroke-width="4.88372" stroke-linecap="round" stroke-linejoin="round"/>
</svg>
